<?xml version="1.0" standalone="no"?>
<!DOCTYPE svg PUBLIC "-//W3C//DTD SVG 20010904//EN"
 "http://www.w3.org/TR/2001/REC-SVG-20010904/DTD/svg10.dtd">
<svg version="1.0" xmlns="http://www.w3.org/2000/svg"
 width="512.000000pt" height="512.000000pt" viewBox="0 0 512.000000 512.000000"
 preserveAspectRatio="xMidYMid meet">
<metadata>
Created by potrace 1.14, written by Peter Selinger 2001-2017
</metadata>
<g transform="translate(0.000000,512.000000) scale(0.100000,-0.100000)"
fill="#000000" stroke="none">
<path d="M1502 4720 c-107 -25 -202 -163 -202 -295 0 -54 140 -649 175 -740
34 -92 86 -162 136 -184 l40 -18 -45 -12 c-111 -28 -158 -113 -262 -473 -76
-262 -76 -263 -65 -322 7 -33 25 -147 41 -254 26 -173 32 -198 54 -221 24 -25
30 -63 141 -833 63 -444 118 -815 122 -825 13 -38 46 -74 86 -96 l42 -22 780
0 c715 0 783 1 811 17 42 23 91 80 98 115 3 15 53 359 111 763 58 404 109 759
114 789 7 43 15 60 39 80 31 26 31 27 57 231 43 337 46 294 -29 550 -37 124
-75 254 -86 290 -33 112 -94 188 -165 206 -29 7 -28 7 21 29 66 29 117 90 148
179 14 39 60 217 102 396 63 272 75 334 70 382 -12 123 -92 234 -189 263 -44
13 -191 15 -1081 14 -567 -1 -1046 -5 -1064 -9z m1366 -2825 c35 -63 66 -115
70 -115 4 0 22 9 40 20 17 11 32 16 32 12 0 -4 -35 -68 -78 -142 l-77 -135
-160 -2 -160 -3 42 26 42 25 -32 59 c-18 33 -35 60 -39 60 -3 0 -45 -71 -92
-158 -47 -87 -92 -166 -99 -176 -13 -17 -23 -13 -165 74 -84 50 -152 96 -152
102 0 6 57 113 126 239 l126 229 257 0 256 0 63 -115z m290 -527 c49 -90 106
-194 127 -233 l38 -70 -128 -232 -128 -233 -128 0 -128 0 -3 -50 -3 -50 -78
143 -77 144 77 144 78 144 3 -42 3 -43 60 0 c32 0 59 3 59 7 0 3 -41 82 -91
175 -50 93 -89 172 -86 175 11 11 301 183 308 183 4 0 48 -73 97 -162z m-950
-140 c38 -68 75 -134 82 -147 l12 -24 -35 21 c-19 12 -39 22 -44 22 -6 0 -25
-27 -42 -60 l-32 -60 200 0 201 0 0 -190 0 -190 -261 2 -261 3 -124 225 c-68
124 -124 230 -124 235 0 6 28 61 61 123 34 62 60 114 58 116 -2 1 -20 12 -39
24 l-35 22 156 0 157 0 70 -122z"/>
</g>
</svg>
